<svg xmlns="http://www.w3.org/2000/svg" viewBox="0 0 250 250" width="400px" height="400px">
<style>
  .qr-txt { font-family: monospace; font-size: 11px; text-anchor: middle; dominant-baseline: central; font-weight: 900; }
  .qr-data-dark { fill: #38bdf8; }
  .qr-data-light { fill: #38bdf8; opacity: 0.3; }
  .qr-eye-outer { fill: #e879f9; }
  .qr-eye-inner { fill: #fbbf24; }
</style>
<rect width="250" height="250" fill="#0f172a" rx="10"/>
<text x="75.0" y="5.0" class="qr-txt qr-data-light">▢</text>
<text x="85.0" y="5.0" class="qr-txt qr-data-dark">▢</text>
<text x="95.0" y="5.0" class="qr-txt qr-data-light">▢</text>
<text x="105.0" y="5.0" class="qr-txt qr-data-light">▢</text>
<text x="115.0" y="5.0" class="qr-txt qr-data-dark">▢</text>
<text x="125.0" y="5.0" class="qr-txt qr-data-dark">▢</text>
<text x="135.0" y="5.0" class="qr-txt qr-data-dark">▢</text>
<text x="145.0" y="5.0" class="qr-txt qr-data-dark">▢</text>
<text x="155.0" y="5.0" class="qr-txt qr-data-light">▢</text>
<text x="165.0" y="5.0" class="qr-txt qr-data-light">▢</text>
<text x="175.0" y="5.0" class="qr-txt qr-data-light">▢</text>
<text x="75.0" y="15.0" class="qr-txt qr-data-light">▢</text>
<text x="85.0" y="15.0" class="qr-txt qr-data-dark">▢</text>
<text x="95.0" y="15.0" class="qr-txt qr-data-dark">▢</text>
<text x="105.0" y="15.0" class="qr-txt qr-data-dark">▢</text>
<text x="115.0" y="15.0" class="qr-txt qr-data-light">▢</text>
<text x="125.0" y="15.0" class="qr-txt qr-data-dark">▢</text>
<text x="135.0" y="15.0" class="qr-txt qr-data-light">▢</text>
<text x="145.0" y="15.0" class="qr-txt qr-data-dark">▢</text>
<text x="155.0" y="15.0" class="qr-txt qr-data-light">▢</text>
<text x="165.0" y="15.0" class="qr-txt qr-data-dark">▢</text>
<text x="175.0" y="15.0" class="qr-txt qr-data-light">▢</text>
<text x="75.0" y="25.0" class="qr-txt qr-data-light">▢</text>
<text x="85.0" y="25.0" class="qr-txt qr-data-light">▢</text>
<text x="95.0" y="25.0" class="qr-txt qr-data-light">▢</text>
<text x="105.0" y="25.0" class="qr-txt qr-data-dark">▢</text>
<text x="115.0" y="25.0" class="qr-txt qr-data-dark">▢</text>
<text x="125.0" y="25.0" class="qr-txt qr-data-dark">▢</text>
<text x="135.0" y="25.0" class="qr-txt qr-data-dark">▢</text>
<text x="145.0" y="25.0" class="qr-txt qr-data-dark">▢</text>
<text x="155.0" y="25.0" class="qr-txt qr-data-light">▢</text>
<text x="165.0" y="25.0" class="qr-txt qr-data-light">▢</text>
<text x="175.0" y="25.0" class="qr-txt qr-data-light">▢</text>
<text x="75.0" y="35.0" class="qr-txt qr-data-light">▢</text>
<text x="85.0" y="35.0" class="qr-txt qr-data-light">▢</text>
<text x="95.0" y="35.0" class="qr-txt qr-data-light">▢</text>
<text x="105.0" y="35.0" class="qr-txt qr-data-dark">▢</text>
<text x="115.0" y="35.0" class="qr-txt qr-data-light">▢</text>
<text x="125.0" y="35.0" class="qr-txt qr-data-light">▢</text>
<text x="135.0" y="35.0" class="qr-txt qr-data-dark">▢</text>
<text x="145.0" y="35.0" class="qr-txt qr-data-dark">▢</text>
<text x="155.0" y="35.0" class="qr-txt qr-data-dark">▢</text>
<text x="165.0" y="35.0" class="qr-txt qr-data-light">▢</text>
<text x="175.0" y="35.0" class="qr-txt qr-data-light">▢</text>
<text x="75.0" y="45.0" class="qr-txt qr-data-light">▢</text>
<text x="85.0" y="45.0" class="qr-txt qr-data-dark">▢</text>
<text x="95.0" y="45.0" class="qr-txt qr-data-dark">▢</text>
<text x="105.0" y="45.0" class="qr-txt qr-data-dark">▢</text>
<text x="115.0" y="45.0" class="qr-txt qr-data-dark">▢</text>
<text x="125.0" y="45.0" class="qr-txt qr-data-light">▢</text>
<text x="135.0" y="45.0" class="qr-txt qr-data-dark">▢</text>
<text x="145.0" y="45.0" class="qr-txt qr-data-dark">▢</text>
<text x="155.0" y="45.0" class="qr-txt qr-data-light">▢</text>
<text x="165.0" y="45.0" class="qr-txt qr-data-dark">▢</text>
<text x="175.0" y="45.0" class="qr-txt qr-data-light">▢</text>
<text x="75.0" y="55.0" class="qr-txt qr-data-light">▢</text>
<text x="85.0" y="55.0" class="qr-txt qr-data-dark">▢</text>
<text x="95.0" y="55.0" class="qr-txt qr-data-light">▢</text>
<text x="105.0" y="55.0" class="qr-txt qr-data-light">▢</text>
<text x="115.0" y="55.0" class="qr-txt qr-data-dark">▢</text>
<text x="125.0" y="55.0" class="qr-txt qr-data-light">▢</text>
<text x="135.0" y="55.0" class="qr-txt qr-data-light">▢</text>
<text x="145.0" y="55.0" class="qr-txt qr-data-dark">▢</text>
<text x="155.0" y="55.0" class="qr-txt qr-data-light">▢</text>
<text x="165.0" y="55.0" class="qr-txt qr-data-light">▢</text>
<text x="175.0" y="55.0" class="qr-txt qr-data-light">▢</text>
<text x="75.0" y="65.0" class="qr-txt qr-data-light">▢</text>
<text x="85.0" y="65.0" class="qr-txt qr-data-dark">▢</text>
<text x="95.0" y="65.0" class="qr-txt qr-data-light">▢</text>
<text x="105.0" y="65.0" class="qr-txt qr-data-dark">▢</text>
<text x="115.0" y="65.0" class="qr-txt qr-data-light">▢</text>
<text x="125.0" y="65.0" class="qr-txt qr-data-dark">▢</text>
<text x="135.0" y="65.0" class="qr-txt qr-data-light">▢</text>
<text x="145.0" y="65.0" class="qr-txt qr-data-dark">▢</text>
<text x="155.0" y="65.0" class="qr-txt qr-data-light">▢</text>
<text x="165.0" y="65.0" class="qr-txt qr-data-dark">▢</text>
<text x="175.0" y="65.0" class="qr-txt qr-data-light">▢</text>
<text x="5.0" y="75.0" class="qr-txt qr-data-light">▢</text>
<text x="15.0" y="75.0" class="qr-txt qr-data-light">▢</text>
<text x="25.0" y="75.0" class="qr-txt qr-data-light">▢</text>
<text x="35.0" y="75.0" class="qr-txt qr-data-light">▢</text>
<text x="45.0" y="75.0" class="qr-txt qr-data-light">▢</text>
<text x="55.0" y="75.0" class="qr-txt qr-data-light">▢</text>
<text x="65.0" y="75.0" class="qr-txt qr-data-light">▢</text>
<text x="75.0" y="75.0" class="qr-txt qr-data-light">▢</text>
<text x="85.0" y="75.0" class="qr-txt qr-data-dark">▢</text>
<text x="95.0" y="75.0" class="qr-txt qr-data-light">▢</text>
<text x="105.0" y="75.0" class="qr-txt qr-data-dark">▢</text>
<text x="115.0" y="75.0" class="qr-txt qr-data-dark">▢</text>
<text x="125.0" y="75.0" class="qr-txt qr-data-dark">▢</text>
<text x="135.0" y="75.0" class="qr-txt qr-data-light">▢</text>
<text x="145.0" y="75.0" class="qr-txt qr-data-dark">▢</text>
<text x="155.0" y="75.0" class="qr-txt qr-data-light">▢</text>
<text x="165.0" y="75.0" class="qr-txt qr-data-dark">▢</text>
<text x="175.0" y="75.0" class="qr-txt qr-data-light">▢</text>
<text x="185.0" y="75.0" class="qr-txt qr-data-light">▢</text>
<text x="195.0" y="75.0" class="qr-txt qr-data-light">▢</text>
<text x="205.0" y="75.0" class="qr-txt qr-data-light">▢</text>
<text x="215.0" y="75.0" class="qr-txt qr-data-light">▢</text>
<text x="225.0" y="75.0" class="qr-txt qr-data-light">▢</text>
<text x="235.0" y="75.0" class="qr-txt qr-data-light">▢</text>
<text x="245.0" y="75.0" class="qr-txt qr-data-light">▢</text>
<text x="5.0" y="85.0" class="qr-txt qr-data-dark">▢</text>
<text x="15.0" y="85.0" class="qr-txt qr-data-dark">▢</text>
<text x="25.0" y="85.0" class="qr-txt qr-data-dark">▢</text>
<text x="35.0" y="85.0" class="qr-txt qr-data-light">▢</text>
<text x="45.0" y="85.0" class="qr-txt qr-data-light">▢</text>
<text x="55.0" y="85.0" class="qr-txt qr-data-dark">▢</text>
<text x="65.0" y="85.0" class="qr-txt qr-data-dark">▢</text>
<text x="75.0" y="85.0" class="qr-txt qr-data-light">▢</text>
<text x="85.0" y="85.0" class="qr-txt qr-data-dark">▢</text>
<text x="95.0" y="85.0" class="qr-txt qr-data-dark">▢</text>
<text x="105.0" y="85.0" class="qr-txt qr-data-dark">▢</text>
<text x="115.0" y="85.0" class="qr-txt qr-data-light">▢</text>
<text x="125.0" y="85.0" class="qr-txt qr-data-dark">▢</text>
<text x="135.0" y="85.0" class="qr-txt qr-data-light">▢</text>
<text x="145.0" y="85.0" class="qr-txt qr-data-light">▢</text>
<text x="155.0" y="85.0" class="qr-txt qr-data-dark">▢</text>
<text x="165.0" y="85.0" class="qr-txt qr-data-light">▢</text>
<text x="175.0" y="85.0" class="qr-txt qr-data-dark">▢</text>
<text x="185.0" y="85.0" class="qr-txt qr-data-dark">▢</text>
<text x="195.0" y="85.0" class="qr-txt qr-data-dark">▢</text>
<text x="205.0" y="85.0" class="qr-txt qr-data-dark">▢</text>
<text x="215.0" y="85.0" class="qr-txt qr-data-light">▢</text>
<text x="225.0" y="85.0" class="qr-txt qr-data-light">▢</text>
<text x="235.0" y="85.0" class="qr-txt qr-data-dark">▢</text>
<text x="245.0" y="85.0" class="qr-txt qr-data-dark">▢</text>
<text x="5.0" y="95.0" class="qr-txt qr-data-dark">▢</text>
<text x="15.0" y="95.0" class="qr-txt qr-data-dark">▢</text>
<text x="25.0" y="95.0" class="qr-txt qr-data-light">▢</text>
<text x="35.0" y="95.0" class="qr-txt qr-data-dark">▢</text>
<text x="45.0" y="95.0" class="qr-txt qr-data-light">▢</text>
<text x="55.0" y="95.0" class="qr-txt qr-data-dark">▢</text>
<text x="65.0" y="95.0" class="qr-txt qr-data-light">▢</text>
<text x="75.0" y="95.0" class="qr-txt qr-data-dark">▢</text>
<text x="85.0" y="95.0" class="qr-txt qr-data-light">▢</text>
<text x="95.0" y="95.0" class="qr-txt qr-data-dark">▢</text>
<text x="105.0" y="95.0" class="qr-txt qr-data-dark">▢</text>
<text x="115.0" y="95.0" class="qr-txt qr-data-light">▢</text>
<text x="125.0" y="95.0" class="qr-txt qr-data-light">▢</text>
<text x="135.0" y="95.0" class="qr-txt qr-data-dark">▢</text>
<text x="145.0" y="95.0" class="qr-txt qr-data-light">▢</text>
<text x="155.0" y="95.0" class="qr-txt qr-data-dark">▢</text>
<text x="165.0" y="95.0" class="qr-txt qr-data-dark">▢</text>
<text x="175.0" y="95.0" class="qr-txt qr-data-light">▢</text>
<text x="185.0" y="95.0" class="qr-txt qr-data-dark">▢</text>
<text x="195.0" y="95.0" class="qr-txt qr-data-light">▢</text>
<text x="205.0" y="95.0" class="qr-txt qr-data-light">▢</text>
<text x="215.0" y="95.0" class="qr-txt qr-data-light">▢</text>
<text x="225.0" y="95.0" class="qr-txt qr-data-light">▢</text>
<text x="235.0" y="95.0" class="qr-txt qr-data-dark">▢</text>
<text x="245.0" y="95.0" class="qr-txt qr-data-dark">▢</text>
<text x="5.0" y="105.0" class="qr-txt qr-data-light">▢</text>
<text x="15.0" y="105.0" class="qr-txt qr-data-dark">▢</text>
<text x="25.0" y="105.0" class="qr-txt qr-data-light">▢</text>
<text x="35.0" y="105.0" class="qr-txt qr-data-light">▢</text>
<text x="45.0" y="105.0" class="qr-txt qr-data-light">▢</text>
<text x="55.0" y="105.0" class="qr-txt qr-data-light">▢</text>
<text x="65.0" y="105.0" class="qr-txt qr-data-dark">▢</text>
<text x="75.0" y="105.0" class="qr-txt qr-data-light">▢</text>
<text x="85.0" y="105.0" class="qr-txt qr-data-dark">▢</text>
<text x="95.0" y="105.0" class="qr-txt qr-data-light">▢</text>
<text x="105.0" y="105.0" class="qr-txt qr-data-light">▢</text>
<text x="115.0" y="105.0" class="qr-txt qr-data-dark">▢</text>
<text x="125.0" y="105.0" class="qr-txt qr-data-light">▢</text>
<text x="135.0" y="105.0" class="qr-txt qr-data-dark">▢</text>
<text x="145.0" y="105.0" class="qr-txt qr-data-light">▢</text>
<text x="155.0" y="105.0" class="qr-txt qr-data-dark">▢</text>
<text x="165.0" y="105.0" class="qr-txt qr-data-light">▢</text>
<text x="175.0" y="105.0" class="qr-txt qr-data-light">▢</text>
<text x="185.0" y="105.0" class="qr-txt qr-data-light">▢</text>
<text x="195.0" y="105.0" class="qr-txt qr-data-light">▢</text>
<text x="205.0" y="105.0" class="qr-txt qr-data-light">▢</text>
<text x="215.0" y="105.0" class="qr-txt qr-data-dark">▢</text>
<text x="225.0" y="105.0" class="qr-txt qr-data-dark">▢</text>
<text x="235.0" y="105.0" class="qr-txt qr-data-light">▢</text>
<text x="245.0" y="105.0" class="qr-txt qr-data-dark">▢</text>
<text x="5.0" y="115.0" class="qr-txt qr-data-dark">▢</text>
<text x="15.0" y="115.0" class="qr-txt qr-data-light">▢</text>
<text x="25.0" y="115.0" class="qr-txt qr-data-dark">▢</text>
<text x="35.0" y="115.0" class="qr-txt qr-data-light">▢</text>
<text x="45.0" y="115.0" class="qr-txt qr-data-dark">▢</text>
<text x="55.0" y="115.0" class="qr-txt qr-data-light">▢</text>
<text x="65.0" y="115.0" class="qr-txt qr-data-light">▢</text>
<text x="75.0" y="115.0" class="qr-txt qr-data-light">▢</text>
<text x="85.0" y="115.0" class="qr-txt qr-data-light">▢</text>
<text x="95.0" y="115.0" class="qr-txt qr-data-dark">▢</text>
<text x="105.0" y="115.0" class="qr-txt qr-data-light">▢</text>
<text x="115.0" y="115.0" class="qr-txt qr-data-light">▢</text>
<text x="125.0" y="115.0" class="qr-txt qr-data-dark">▢</text>
<text x="135.0" y="115.0" class="qr-txt qr-data-light">▢</text>
<text x="145.0" y="115.0" class="qr-txt qr-data-dark">▢</text>
<text x="155.0" y="115.0" class="qr-txt qr-data-light">▢</text>
<text x="165.0" y="115.0" class="qr-txt qr-data-dark">▢</text>
<text x="175.0" y="115.0" class="qr-txt qr-data-dark">▢</text>
<text x="185.0" y="115.0" class="qr-txt qr-data-dark">▢</text>
<text x="195.0" y="115.0" class="qr-txt qr-data-dark">▢</text>
<text x="205.0" y="115.0" class="qr-txt qr-data-dark">▢</text>
<text x="215.0" y="115.0" class="qr-txt qr-data-dark">▢</text>
<text x="225.0" y="115.0" class="qr-txt qr-data-light">▢</text>
<text x="235.0" y="115.0" class="qr-txt qr-data-dark">▢</text>
<text x="245.0" y="115.0" class="qr-txt qr-data-light">▢</text>
<text x="5.0" y="125.0" class="qr-txt qr-data-light">▢</text>
<text x="15.0" y="125.0" class="qr-txt qr-data-dark">▢</text>
<text x="25.0" y="125.0" class="qr-txt qr-data-dark">▢</text>
<text x="35.0" y="125.0" class="qr-txt qr-data-light">▢</text>
<text x="45.0" y="125.0" class="qr-txt qr-data-light">▢</text>
<text x="55.0" y="125.0" class="qr-txt qr-data-light">▢</text>
<text x="65.0" y="125.0" class="qr-txt qr-data-dark">▢</text>
<text x="75.0" y="125.0" class="qr-txt qr-data-light">▢</text>
<text x="85.0" y="125.0" class="qr-txt qr-data-light">▢</text>
<text x="95.0" y="125.0" class="qr-txt qr-data-dark">▢</text>
<text x="105.0" y="125.0" class="qr-txt qr-data-light">▢</text>
<text x="115.0" y="125.0" class="qr-txt qr-data-dark">▢</text>
<text x="125.0" y="125.0" class="qr-txt qr-data-light">▢</text>
<text x="135.0" y="125.0" class="qr-txt qr-data-light">▢</text>
<text x="145.0" y="125.0" class="qr-txt qr-data-light">▢</text>
<text x="155.0" y="125.0" class="qr-txt qr-data-dark">▢</text>
<text x="165.0" y="125.0" class="qr-txt qr-data-dark">▢</text>
<text x="175.0" y="125.0" class="qr-txt qr-data-light">▢</text>
<text x="185.0" y="125.0" class="qr-txt qr-data-dark">▢</text>
<text x="195.0" y="125.0" class="qr-txt qr-data-dark">▢</text>
<text x="205.0" y="125.0" class="qr-txt qr-data-light">▢</text>
<text x="215.0" y="125.0" class="qr-txt qr-data-light">▢</text>
<text x="225.0" y="125.0" class="qr-txt qr-data-light">▢</text>
<text x="235.0" y="125.0" class="qr-txt qr-data-dark">▢</text>
<text x="245.0" y="125.0" class="qr-txt qr-data-dark">▢</text>
<text x="5.0" y="135.0" class="qr-txt qr-data-light">▢</text>
<text x="15.0" y="135.0" class="qr-txt qr-data-light">▢</text>
<text x="25.0" y="135.0" class="qr-txt qr-data-light">▢</text>
<text x="35.0" y="135.0" class="qr-txt qr-data-dark">▢</text>
<text x="45.0" y="135.0" class="qr-txt qr-data-dark">▢</text>
<text x="55.0" y="135.0" class="qr-txt qr-data-light">▢</text>
<text x="65.0" y="135.0" class="qr-txt qr-data-light">▢</text>
<text x="75.0" y="135.0" class="qr-txt qr-data-light">▢</text>
<text x="85.0" y="135.0" class="qr-txt qr-data-light">▢</text>
<text x="95.0" y="135.0" class="qr-txt qr-data-light">▢</text>
<text x="105.0" y="135.0" class="qr-txt qr-data-light">▢</text>
<text x="115.0" y="135.0" class="qr-txt qr-data-dark">▢</text>
<text x="125.0" y="135.0" class="qr-txt qr-data-light">▢</text>
<text x="135.0" y="135.0" class="qr-txt qr-data-dark">▢</text>
<text x="145.0" y="135.0" class="qr-txt qr-data-light">▢</text>
<text x="155.0" y="135.0" class="qr-txt qr-data-dark">▢</text>
<text x="165.0" y="135.0" class="qr-txt qr-data-dark">▢</text>
<text x="175.0" y="135.0" class="qr-txt qr-data-dark">▢</text>
<text x="185.0" y="135.0" class="qr-txt qr-data-dark">▢</text>
<text x="195.0" y="135.0" class="qr-txt qr-data-light">▢</text>
<text x="205.0" y="135.0" class="qr-txt qr-data-light">▢</text>
<text x="215.0" y="135.0" class="qr-txt qr-data-light">▢</text>
<text x="225.0" y="135.0" class="qr-txt qr-data-light">▢</text>
<text x="235.0" y="135.0" class="qr-txt qr-data-light">▢</text>
<text x="245.0" y="135.0" class="qr-txt qr-data-dark">▢</text>
<text x="5.0" y="145.0" class="qr-txt qr-data-dark">▢</text>
<text x="15.0" y="145.0" class="qr-txt qr-data-dark">▢</text>
<text x="25.0" y="145.0" class="qr-txt qr-data-light">▢</text>
<text x="35.0" y="145.0" class="qr-txt qr-data-dark">▢</text>
<text x="45.0" y="145.0" class="qr-txt qr-data-light">▢</text>
<text x="55.0" y="145.0" class="qr-txt qr-data-dark">▢</text>
<text x="65.0" y="145.0" class="qr-txt qr-data-dark">▢</text>
<text x="75.0" y="145.0" class="qr-txt qr-data-dark">▢</text>
<text x="85.0" y="145.0" class="qr-txt qr-data-light">▢</text>
<text x="95.0" y="145.0" class="qr-txt qr-data-light">▢</text>
<text x="105.0" y="145.0" class="qr-txt qr-data-light">▢</text>
<text x="115.0" y="145.0" class="qr-txt qr-data-dark">▢</text>
<text x="125.0" y="145.0" class="qr-txt qr-data-dark">▢</text>
<text x="135.0" y="145.0" class="qr-txt qr-data-light">▢</text>
<text x="145.0" y="145.0" class="qr-txt qr-data-light">▢</text>
<text x="155.0" y="145.0" class="qr-txt qr-data-dark">▢</text>
<text x="165.0" y="145.0" class="qr-txt qr-data-light">▢</text>
<text x="175.0" y="145.0" class="qr-txt qr-data-light">▢</text>
<text x="185.0" y="145.0" class="qr-txt qr-data-dark">▢</text>
<text x="195.0" y="145.0" class="qr-txt qr-data-dark">▢</text>
<text x="205.0" y="145.0" class="qr-txt qr-data-light">▢</text>
<text x="215.0" y="145.0" class="qr-txt qr-data-dark">▢</text>
<text x="225.0" y="145.0" class="qr-txt qr-data-dark">▢</text>
<text x="235.0" y="145.0" class="qr-txt qr-data-light">▢</text>
<text x="245.0" y="145.0" class="qr-txt qr-data-dark">▢</text>
<text x="5.0" y="155.0" class="qr-txt qr-data-light">▢</text>
<text x="15.0" y="155.0" class="qr-txt qr-data-light">▢</text>
<text x="25.0" y="155.0" class="qr-txt qr-data-dark">▢</text>
<text x="35.0" y="155.0" class="qr-txt qr-data-dark">▢</text>
<text x="45.0" y="155.0" class="qr-txt qr-data-dark">▢</text>
<text x="55.0" y="155.0" class="qr-txt qr-data-dark">▢</text>
<text x="65.0" y="155.0" class="qr-txt qr-data-light">▢</text>
<text x="75.0" y="155.0" class="qr-txt qr-data-light">▢</text>
<text x="85.0" y="155.0" class="qr-txt qr-data-dark">▢</text>
<text x="95.0" y="155.0" class="qr-txt qr-data-light">▢</text>
<text x="105.0" y="155.0" class="qr-txt qr-data-light">▢</text>
<text x="115.0" y="155.0" class="qr-txt qr-data-light">▢</text>
<text x="125.0" y="155.0" class="qr-txt qr-data-dark">▢</text>
<text x="135.0" y="155.0" class="qr-txt qr-data-light">▢</text>
<text x="145.0" y="155.0" class="qr-txt qr-data-dark">▢</text>
<text x="155.0" y="155.0" class="qr-txt qr-data-dark">▢</text>
<text x="165.0" y="155.0" class="qr-txt qr-data-light">▢</text>
<text x="175.0" y="155.0" class="qr-txt qr-data-light">▢</text>
<text x="185.0" y="155.0" class="qr-txt qr-data-light">▢</text>
<text x="195.0" y="155.0" class="qr-txt qr-data-light">▢</text>
<text x="205.0" y="155.0" class="qr-txt qr-data-dark">▢</text>
<text x="215.0" y="155.0" class="qr-txt qr-data-dark">▢</text>
<text x="225.0" y="155.0" class="qr-txt qr-data-light">▢</text>
<text x="235.0" y="155.0" class="qr-txt qr-data-light">▢</text>
<text x="245.0" y="155.0" class="qr-txt qr-data-light">▢</text>
<text x="5.0" y="165.0" class="qr-txt qr-data-dark">▢</text>
<text x="15.0" y="165.0" class="qr-txt qr-data-dark">▢</text>
<text x="25.0" y="165.0" class="qr-txt qr-data-dark">▢</text>
<text x="35.0" y="165.0" class="qr-txt qr-data-light">▢</text>
<text x="45.0" y="165.0" class="qr-txt qr-data-dark">▢</text>
<text x="55.0" y="165.0" class="qr-txt qr-data-light">▢</text>
<text x="65.0" y="165.0" class="qr-txt qr-data-dark">▢</text>
<text x="75.0" y="165.0" class="qr-txt qr-data-dark">▢</text>
<text x="85.0" y="165.0" class="qr-txt qr-data-dark">▢</text>
<text x="95.0" y="165.0" class="qr-txt qr-data-light">▢</text>
<text x="105.0" y="165.0" class="qr-txt qr-data-dark">▢</text>
<text x="115.0" y="165.0" class="qr-txt qr-data-dark">▢</text>
<text x="125.0" y="165.0" class="qr-txt qr-data-light">▢</text>
<text x="135.0" y="165.0" class="qr-txt qr-data-light">▢</text>
<text x="145.0" y="165.0" class="qr-txt qr-data-dark">▢</text>
<text x="155.0" y="165.0" class="qr-txt qr-data-light">▢</text>
<text x="165.0" y="165.0" class="qr-txt qr-data-dark">▢</text>
<text x="175.0" y="165.0" class="qr-txt qr-data-dark">▢</text>
<text x="185.0" y="165.0" class="qr-txt qr-data-dark">▢</text>
<text x="195.0" y="165.0" class="qr-txt qr-data-dark">▢</text>
<text x="205.0" y="165.0" class="qr-txt qr-data-dark">▢</text>
<text x="215.0" y="165.0" class="qr-txt qr-data-dark">▢</text>
<text x="225.0" y="165.0" class="qr-txt qr-data-light">▢</text>
<text x="235.0" y="165.0" class="qr-txt qr-data-dark">▢</text>
<text x="245.0" y="165.0" class="qr-txt qr-data-light">▢</text>
<text x="5.0" y="175.0" class="qr-txt qr-data-light">▢</text>
<text x="15.0" y="175.0" class="qr-txt qr-data-light">▢</text>
<text x="25.0" y="175.0" class="qr-txt qr-data-light">▢</text>
<text x="35.0" y="175.0" class="qr-txt qr-data-light">▢</text>
<text x="45.0" y="175.0" class="qr-txt qr-data-light">▢</text>
<text x="55.0" y="175.0" class="qr-txt qr-data-light">▢</text>
<text x="65.0" y="175.0" class="qr-txt qr-data-light">▢</text>
<text x="75.0" y="175.0" class="qr-txt qr-data-light">▢</text>
<text x="85.0" y="175.0" class="qr-txt qr-data-dark">▢</text>
<text x="95.0" y="175.0" class="qr-txt qr-data-light">▢</text>
<text x="105.0" y="175.0" class="qr-txt qr-data-light">▢</text>
<text x="115.0" y="175.0" class="qr-txt qr-data-dark">▢</text>
<text x="125.0" y="175.0" class="qr-txt qr-data-light">▢</text>
<text x="135.0" y="175.0" class="qr-txt qr-data-dark">▢</text>
<text x="145.0" y="175.0" class="qr-txt qr-data-light">▢</text>
<text x="155.0" y="175.0" class="qr-txt qr-data-light">▢</text>
<text x="165.0" y="175.0" class="qr-txt qr-data-dark">▢</text>
<text x="175.0" y="175.0" class="qr-txt qr-data-light">▢</text>
<text x="185.0" y="175.0" class="qr-txt qr-data-light">▢</text>
<text x="195.0" y="175.0" class="qr-txt qr-data-light">▢</text>
<text x="205.0" y="175.0" class="qr-txt qr-data-dark">▢</text>
<text x="215.0" y="175.0" class="qr-txt qr-data-dark">▢</text>
<text x="225.0" y="175.0" class="qr-txt qr-data-dark">▢</text>
<text x="235.0" y="175.0" class="qr-txt qr-data-light">▢</text>
<text x="245.0" y="175.0" class="qr-txt qr-data-dark">▢</text>
<text x="75.0" y="185.0" class="qr-txt qr-data-light">▢</text>
<text x="85.0" y="185.0" class="qr-txt qr-data-light">▢</text>
<text x="95.0" y="185.0" class="qr-txt qr-data-light">▢</text>
<text x="105.0" y="185.0" class="qr-txt qr-data-dark">▢</text>
<text x="115.0" y="185.0" class="qr-txt qr-data-dark">▢</text>
<text x="125.0" y="185.0" class="qr-txt qr-data-light">▢</text>
<text x="135.0" y="185.0" class="qr-txt qr-data-light">▢</text>
<text x="145.0" y="185.0" class="qr-txt qr-data-light">▢</text>
<text x="155.0" y="185.0" class="qr-txt qr-data-light">▢</text>
<text x="165.0" y="185.0" class="qr-txt qr-data-dark">▢</text>
<text x="175.0" y="185.0" class="qr-txt qr-data-light">▢</text>
<text x="185.0" y="185.0" class="qr-txt qr-data-dark">▢</text>
<text x="195.0" y="185.0" class="qr-txt qr-data-light">▢</text>
<text x="205.0" y="185.0" class="qr-txt qr-data-dark">▢</text>
<text x="215.0" y="185.0" class="qr-txt qr-data-dark">▢</text>
<text x="225.0" y="185.0" class="qr-txt qr-data-light">▢</text>
<text x="235.0" y="185.0" class="qr-txt qr-data-light">▢</text>
<text x="245.0" y="185.0" class="qr-txt qr-data-dark">▢</text>
<text x="75.0" y="195.0" class="qr-txt qr-data-light">▢</text>
<text x="85.0" y="195.0" class="qr-txt qr-data-dark">▢</text>
<text x="95.0" y="195.0" class="qr-txt qr-data-dark">▢</text>
<text x="105.0" y="195.0" class="qr-txt qr-data-dark">▢</text>
<text x="115.0" y="195.0" class="qr-txt qr-data-dark">▢</text>
<text x="125.0" y="195.0" class="qr-txt qr-data-light">▢</text>
<text x="135.0" y="195.0" class="qr-txt qr-data-light">▢</text>
<text x="145.0" y="195.0" class="qr-txt qr-data-dark">▢</text>
<text x="155.0" y="195.0" class="qr-txt qr-data-dark">▢</text>
<text x="165.0" y="195.0" class="qr-txt qr-data-dark">▢</text>
<text x="175.0" y="195.0" class="qr-txt qr-data-light">▢</text>
<text x="185.0" y="195.0" class="qr-txt qr-data-light">▢</text>
<text x="195.0" y="195.0" class="qr-txt qr-data-light">▢</text>
<text x="205.0" y="195.0" class="qr-txt qr-data-dark">▢</text>
<text x="215.0" y="195.0" class="qr-txt qr-data-dark">▢</text>
<text x="225.0" y="195.0" class="qr-txt qr-data-light">▢</text>
<text x="235.0" y="195.0" class="qr-txt qr-data-dark">▢</text>
<text x="245.0" y="195.0" class="qr-txt qr-data-dark">▢</text>
<text x="75.0" y="205.0" class="qr-txt qr-data-light">▢</text>
<text x="85.0" y="205.0" class="qr-txt qr-data-light">▢</text>
<text x="95.0" y="205.0" class="qr-txt qr-data-dark">▢</text>
<text x="105.0" y="205.0" class="qr-txt qr-data-dark">▢</text>
<text x="115.0" y="205.0" class="qr-txt qr-data-dark">▢</text>
<text x="125.0" y="205.0" class="qr-txt qr-data-light">▢</text>
<text x="135.0" y="205.0" class="qr-txt qr-data-light">▢</text>
<text x="145.0" y="205.0" class="qr-txt qr-data-dark">▢</text>
<text x="155.0" y="205.0" class="qr-txt qr-data-dark">▢</text>
<text x="165.0" y="205.0" class="qr-txt qr-data-dark">▢</text>
<text x="175.0" y="205.0" class="qr-txt qr-data-dark">▢</text>
<text x="185.0" y="205.0" class="qr-txt qr-data-dark">▢</text>
<text x="195.0" y="205.0" class="qr-txt qr-data-dark">▢</text>
<text x="205.0" y="205.0" class="qr-txt qr-data-dark">▢</text>
<text x="215.0" y="205.0" class="qr-txt qr-data-dark">▢</text>
<text x="225.0" y="205.0" class="qr-txt qr-data-light">▢</text>
<text x="235.0" y="205.0" class="qr-txt qr-data-dark">▢</text>
<text x="245.0" y="205.0" class="qr-txt qr-data-light">▢</text>
<text x="75.0" y="215.0" class="qr-txt qr-data-light">▢</text>
<text x="85.0" y="215.0" class="qr-txt qr-data-light">▢</text>
<text x="95.0" y="215.0" class="qr-txt qr-data-light">▢</text>
<text x="105.0" y="215.0" class="qr-txt qr-data-dark">▢</text>
<text x="115.0" y="215.0" class="qr-txt qr-data-dark">▢</text>
<text x="125.0" y="215.0" class="qr-txt qr-data-light">▢</text>
<text x="135.0" y="215.0" class="qr-txt qr-data-light">▢</text>
<text x="145.0" y="215.0" class="qr-txt qr-data-dark">▢</text>
<text x="155.0" y="215.0" class="qr-txt qr-data-dark">▢</text>
<text x="165.0" y="215.0" class="qr-txt qr-data-dark">▢</text>
<text x="175.0" y="215.0" class="qr-txt qr-data-dark">▢</text>
<text x="185.0" y="215.0" class="qr-txt qr-data-light">▢</text>
<text x="195.0" y="215.0" class="qr-txt qr-data-dark">▢</text>
<text x="205.0" y="215.0" class="qr-txt qr-data-dark">▢</text>
<text x="215.0" y="215.0" class="qr-txt qr-data-light">▢</text>
<text x="225.0" y="215.0" class="qr-txt qr-data-dark">▢</text>
<text x="235.0" y="215.0" class="qr-txt qr-data-dark">▢</text>
<text x="245.0" y="215.0" class="qr-txt qr-data-light">▢</text>
<text x="75.0" y="225.0" class="qr-txt qr-data-light">▢</text>
<text x="85.0" y="225.0" class="qr-txt qr-data-dark">▢</text>
<text x="95.0" y="225.0" class="qr-txt qr-data-dark">▢</text>
<text x="105.0" y="225.0" class="qr-txt qr-data-dark">▢</text>
<text x="115.0" y="225.0" class="qr-txt qr-data-dark">▢</text>
<text x="125.0" y="225.0" class="qr-txt qr-data-dark">▢</text>
<text x="135.0" y="225.0" class="qr-txt qr-data-dark">▢</text>
<text x="145.0" y="225.0" class="qr-txt qr-data-dark">▢</text>
<text x="155.0" y="225.0" class="qr-txt qr-data-dark">▢</text>
<text x="165.0" y="225.0" class="qr-txt qr-data-dark">▢</text>
<text x="175.0" y="225.0" class="qr-txt qr-data-dark">▢</text>
<text x="185.0" y="225.0" class="qr-txt qr-data-light">▢</text>
<text x="195.0" y="225.0" class="qr-txt qr-data-dark">▢</text>
<text x="205.0" y="225.0" class="qr-txt qr-data-dark">▢</text>
<text x="215.0" y="225.0" class="qr-txt qr-data-light">▢</text>
<text x="225.0" y="225.0" class="qr-txt qr-data-dark">▢</text>
<text x="235.0" y="225.0" class="qr-txt qr-data-dark">▢</text>
<text x="245.0" y="225.0" class="qr-txt qr-data-dark">▢</text>
<text x="75.0" y="235.0" class="qr-txt qr-data-light">▢</text>
<text x="85.0" y="235.0" class="qr-txt qr-data-dark">▢</text>
<text x="95.0" y="235.0" class="qr-txt qr-data-light">▢</text>
<text x="105.0" y="235.0" class="qr-txt qr-data-dark">▢</text>
<text x="115.0" y="235.0" class="qr-txt qr-data-dark">▢</text>
<text x="125.0" y="235.0" class="qr-txt qr-data-light">▢</text>
<text x="135.0" y="235.0" class="qr-txt qr-data-light">▢</text>
<text x="145.0" y="235.0" class="qr-txt qr-data-dark">▢</text>
<text x="155.0" y="235.0" class="qr-txt qr-data-light">▢</text>
<text x="165.0" y="235.0" class="qr-txt qr-data-dark">▢</text>
<text x="175.0" y="235.0" class="qr-txt qr-data-light">▢</text>
<text x="185.0" y="235.0" class="qr-txt qr-data-dark">▢</text>
<text x="195.0" y="235.0" class="qr-txt qr-data-light">▢</text>
<text x="205.0" y="235.0" class="qr-txt qr-data-light">▢</text>
<text x="215.0" y="235.0" class="qr-txt qr-data-dark">▢</text>
<text x="225.0" y="235.0" class="qr-txt qr-data-light">▢</text>
<text x="235.0" y="235.0" class="qr-txt qr-data-light">▢</text>
<text x="245.0" y="235.0" class="qr-txt qr-data-light">▢</text>
<text x="75.0" y="245.0" class="qr-txt qr-data-light">▢</text>
<text x="85.0" y="245.0" class="qr-txt qr-data-dark">▢</text>
<text x="95.0" y="245.0" class="qr-txt qr-data-light">▢</text>
<text x="105.0" y="245.0" class="qr-txt qr-data-dark">▢</text>
<text x="115.0" y="245.0" class="qr-txt qr-data-dark">▢</text>
<text x="125.0" y="245.0" class="qr-txt qr-data-light">▢</text>
<text x="135.0" y="245.0" class="qr-txt qr-data-light">▢</text>
<text x="145.0" y="245.0" class="qr-txt qr-data-dark">▢</text>
<text x="155.0" y="245.0" class="qr-txt qr-data-light">▢</text>
<text x="165.0" y="245.0" class="qr-txt qr-data-dark">▢</text>
<text x="175.0" y="245.0" class="qr-txt qr-data-light">▢</text>
<text x="185.0" y="245.0" class="qr-txt qr-data-dark">▢</text>
<text x="195.0" y="245.0" class="qr-txt qr-data-dark">▢</text>
<text x="205.0" y="245.0" class="qr-txt qr-data-light">▢</text>
<text x="215.0" y="245.0" class="qr-txt qr-data-light">▢</text>
<text x="225.0" y="245.0" class="qr-txt qr-data-light">▢</text>
<text x="235.0" y="245.0" class="qr-txt qr-data-light">▢</text>
<text x="245.0" y="245.0" class="qr-txt qr-data-dark">▢</text>
<rect x="0.0" y="0.0" width="70" height="70" rx="16" class="qr-eye-outer"/>
<rect x="10.0" y="10.0" width="50" height="50" rx="10" fill="#0f172a"/>
<rect x="20.0" y="20.0" width="30" height="30" rx="6" class="qr-eye-inner"/>
<rect x="180.0" y="0.0" width="70" height="70" rx="16" class="qr-eye-outer"/>
<rect x="190.0" y="10.0" width="50" height="50" rx="10" fill="#0f172a"/>
<rect x="200.0" y="20.0" width="30" height="30" rx="6" class="qr-eye-inner"/>
<rect x="0.0" y="180.0" width="70" height="70" rx="16" class="qr-eye-outer"/>
<rect x="10.0" y="190.0" width="50" height="50" rx="10" fill="#0f172a"/>
<rect x="20.0" y="200.0" width="30" height="30" rx="6" class="qr-eye-inner"/>
</svg>