<svg version="1.1" id="Layer_1" xmlns="http://www.w3.org/2000/svg" xmlns:xlink="http://www.w3.org/1999/xlink" x="0px" y="0px"
	 width="100%" viewBox="0 0 2720 1536" enable-background="new 0 0 2720 1536" xml:space="preserve">
<path fill="#000000" opacity="1.000000" stroke="none" 
	d="M966.786316,1033.078735 
	C966.797058,1032.592407 966.807800,1032.106079 967.157349,1031.221313 
	C969.003235,1030.626953 970.510254,1030.431152 972.017334,1030.235229 
	C972.461426,1030.286865 972.905518,1030.338623 974.026550,1030.496094 
	C987.610046,1030.549194 1000.517395,1030.407715 1013.422241,1030.533569 
	C1015.515320,1030.553833 1017.596802,1031.760132 1019.662231,1032.800049 
	C1020.448975,1035.616455 1021.238831,1038.057495 1022.068542,1040.484863 
	C1025.042603,1049.185669 1027.953857,1057.908936 1031.033325,1066.572388 
	C1034.310059,1075.790894 1037.750854,1084.950806 1041.076416,1094.499756 
	C1042.138184,1097.723022 1043.243652,1100.582764 1044.391113,1103.792969 
	C1044.692261,1104.794434 1044.951416,1105.445312 1045.140625,1106.358765 
	C1045.368408,1107.041748 1045.666504,1107.462158 1045.977539,1108.256348 
	C1046.136597,1109.102905 1046.282837,1109.575806 1046.372314,1110.349121 
	C1046.907837,1111.716064 1047.500244,1112.782349 1048.083740,1114.223755 
	C1048.232666,1115.066650 1048.390381,1115.534302 1048.486694,1116.268555 
	C1048.847412,1117.093140 1049.269409,1117.651489 1049.710938,1118.595215 
	C1050.376587,1120.657837 1051.022705,1122.335205 1051.584717,1124.273926 
	C1051.768188,1125.186157 1052.035645,1125.836914 1052.364258,1126.854736 
	C1053.112305,1128.824219 1053.799316,1130.426270 1054.419678,1132.384888 
	C1056.111572,1137.241577 1057.869995,1141.741943 1059.649780,1146.610352 
	C1059.908447,1147.675537 1060.145752,1148.372803 1060.311279,1149.426880 
	C1062.850098,1157.156128 1065.460693,1164.528320 1068.071289,1171.900635 
	C1068.527954,1171.871460 1068.984619,1171.842285 1069.441284,1171.813110 
	C1072.046265,1163.541870 1074.651123,1155.270508 1077.408813,1146.658203 
	C1077.643555,1145.826294 1077.725464,1145.335693 1078.085938,1144.633057 
	C1079.432129,1140.967896 1080.499634,1137.514893 1081.712402,1133.726196 
	C1082.031494,1132.682495 1082.205444,1131.974365 1082.653076,1131.066650 
	C1084.679443,1125.274414 1086.432129,1119.681763 1088.312866,1113.838135 
	C1088.476196,1113.216187 1088.511475,1112.845459 1088.857422,1112.311279 
	C1090.646973,1107.777588 1092.125854,1103.407349 1093.733398,1098.675293 
	C1093.959473,1097.554565 1094.057007,1096.795654 1094.358643,1095.935059 
	C1094.559937,1095.289429 1094.557007,1094.745605 1094.860596,1093.905518 
	C1096.344360,1089.940674 1097.520630,1086.271729 1098.698486,1082.603271 
	C1100.798218,1076.063477 1102.898804,1069.523926 1105.169678,1062.693848 
	C1108.268188,1054.256226 1111.196167,1046.109131 1114.201904,1037.608154 
	C1114.511353,1036.144287 1114.743164,1035.034302 1115.169678,1033.694580 
	C1115.810059,1032.621094 1116.256104,1031.777344 1116.820068,1030.932373 
	C1116.938110,1030.931274 1116.933838,1030.695068 1117.391846,1030.563721 
	C1133.428345,1030.454102 1149.007324,1030.418335 1164.583618,1030.606445 
	C1165.828735,1030.621460 1167.055298,1032.181641 1168.093018,1033.213623 
	C1167.859009,1033.757080 1167.822388,1034.110596 1167.539062,1034.646484 
	C1167.002197,1035.559570 1166.711914,1036.290039 1166.220459,1037.356445 
	C1160.118042,1053.527344 1154.222534,1069.364502 1148.313721,1085.196655 
	C1143.234375,1098.806519 1138.139771,1112.410889 1132.802246,1126.270752 
	C1129.031494,1135.661255 1125.424438,1144.767090 1122.006348,1153.942993 
	C1114.565308,1173.919556 1107.225952,1193.933960 1099.831909,1213.927979 
	C1098.311401,1218.039551 1096.509033,1221.846313 1090.534424,1220.831177 
	C1079.054321,1220.802002 1068.030640,1220.884888 1057.006958,1220.967773 
	C1053.856445,1221.217896 1050.706055,1221.467896 1046.826172,1221.747070 
	C1044.392944,1221.833618 1042.689209,1221.891113 1040.985474,1221.948486 
	C1040.661987,1221.741455 1040.338501,1221.534302 1039.720215,1221.465698 
	C1039.425293,1221.604370 1039.393433,1221.499756 1039.393433,1221.499756 
	C1035.741943,1211.756348 1032.157959,1201.986938 1028.425537,1192.274658 
	C1019.639832,1169.413330 1010.759216,1146.588379 1001.963989,1123.730835 
	C995.903870,1107.981201 989.924438,1092.200317 983.904541,1076.435303 
	C981.903687,1071.195435 979.889221,1065.960938 977.741089,1060.083740 
	C977.194885,1058.780273 976.788513,1058.117188 976.382141,1057.453979 
	C973.697876,1050.156250 971.013611,1042.858643 968.115112,1034.974121 
	C967.529297,1033.951172 967.157837,1033.515015 966.786316,1033.078735 
	z"/>
<path fill="#000000" opacity="1.000000" stroke="none" 
	d="M1676.497803,1187.972412 
	C1673.984131,1190.717285 1671.503540,1193.470581 1668.889160,1196.522705 
	C1660.196655,1204.597534 1651.102661,1211.587646 1639.696777,1216.366943 
	C1628.760010,1218.827148 1618.577026,1221.751587 1608.188477,1223.158691 
	C1593.959961,1225.085815 1579.887329,1222.542114 1565.837646,1219.141846 
	C1565.359009,1218.853882 1565.031250,1218.777344 1564.481445,1218.429443 
	C1562.504150,1217.605713 1560.748901,1217.053223 1558.762695,1216.282593 
	C1557.919800,1215.952271 1557.307495,1215.840088 1556.489014,1215.471436 
	C1555.526245,1214.816895 1554.769775,1214.418579 1553.788330,1213.742676 
	C1551.624634,1212.569580 1549.499268,1211.941040 1547.775757,1210.737061 
	C1531.749146,1199.539795 1518.564209,1186.202759 1512.215576,1166.916748 
	C1505.098267,1145.296143 1503.172485,1123.720703 1508.306519,1101.338135 
	C1514.089478,1076.126953 1527.849731,1056.761108 1549.505615,1043.224854 
	C1557.699463,1038.103149 1567.091064,1034.897827 1576.279663,1030.914551 
	C1577.079956,1030.907593 1577.537354,1030.804932 1578.404907,1030.778809 
	C1590.215210,1030.105225 1601.616943,1028.778076 1613.014771,1028.812378 
	C1620.346069,1028.834473 1627.671387,1030.858154 1635.332031,1032.144775 
	C1638.444824,1033.497437 1641.224731,1034.690063 1644.322754,1036.046387 
	C1646.072876,1036.863403 1647.505005,1037.516602 1649.014893,1038.479370 
	C1649.990601,1039.270142 1650.888184,1039.751465 1651.923828,1040.551514 
	C1654.131348,1042.401611 1656.247437,1043.874268 1658.263550,1045.472900 
	C1679.179810,1062.057861 1691.084473,1083.591553 1692.999756,1110.260010 
	C1693.684692,1119.795654 1693.160156,1129.418213 1692.930664,1139.158691 
	C1692.452881,1139.647827 1692.232178,1139.979492 1691.550537,1140.214111 
	C1645.968628,1140.065430 1600.847412,1140.044312 1555.726562,1139.912964 
	C1551.451294,1139.900513 1552.115967,1142.446777 1552.664917,1144.896118 
	C1557.045044,1164.444946 1567.547607,1178.769897 1588.240356,1182.173828 
	C1608.265259,1185.467773 1625.593262,1182.009277 1636.411499,1161.915771 
	C1636.826172,1161.603638 1636.932129,1161.410034 1637.496094,1161.293945 
	C1654.694092,1161.371338 1671.433838,1161.371338 1689.664307,1161.371338 
	C1686.336792,1168.937134 1683.577026,1175.212158 1680.564697,1181.656982 
	C1679.978394,1182.550415 1679.644653,1183.274292 1678.986572,1184.149414 
	C1677.933960,1185.522095 1677.205688,1186.743652 1676.477539,1187.965210 
	C1676.477539,1187.965210 1676.530762,1187.980713 1676.497803,1187.972412 
	M1553.908936,1103.243042 
	C1553.647705,1104.453369 1553.386597,1105.663696 1553.068604,1107.137207 
	C1583.925293,1107.137207 1614.260498,1107.137207 1644.797485,1107.137207 
	C1644.797485,1105.755249 1644.902954,1104.772583 1644.782227,1103.818359 
	C1640.504761,1069.977661 1603.978394,1059.083008 1578.880981,1070.627441 
	C1565.321289,1076.864746 1557.889404,1088.380371 1553.908936,1103.243042 
	z"/>
<path fill="#000000" opacity="1.000000" stroke="none" 
	d="M1196.557007,1035.953003 
	C1196.646606,1035.517090 1196.736206,1035.081299 1196.684692,1034.334717 
	C1196.960205,1032.928345 1197.376709,1031.832642 1198.372559,1030.476929 
	C1202.277344,1030.228516 1205.603516,1030.199585 1208.928101,1030.259033 
	C1221.528198,1030.484497 1234.127563,1030.738403 1246.665039,1031.447998 
	C1246.602661,1094.717163 1246.602661,1157.520020 1246.602661,1220.718140 
	C1229.666382,1220.718140 1213.384155,1220.718140 1197.102051,1220.718140 
	C1197.057983,1183.109009 1197.019165,1145.500000 1196.966431,1107.890869 
	C1196.952026,1097.573120 1196.896240,1087.255371 1196.899292,1076.160400 
	C1196.820190,1074.907227 1196.701294,1074.431274 1196.582397,1073.955200 
	C1196.669678,1062.279053 1196.756958,1050.602783 1196.875244,1038.160034 
	C1196.790039,1036.913330 1196.673462,1036.433105 1196.557007,1035.953003 
	z"/>
<path fill="#000000" opacity="1.000000" stroke="none" 
	d="M1250.844727,974.292358 
	C1252.950317,986.483215 1249.623535,996.369812 1239.433228,1002.818604 
	C1228.648315,1009.643555 1216.990112,1009.842712 1205.875854,1003.579956 
	C1195.106934,997.511780 1190.029663,986.059570 1192.538818,973.717896 
	C1194.763306,962.776550 1202.295288,955.659790 1212.690063,953.010376 
	C1224.973389,949.879517 1238.246094,952.335083 1246.467773,963.998169 
	C1248.499634,966.880432 1249.401978,970.558899 1250.844727,974.292358 
	z"/>
<path fill="#000000" opacity="1.000000" stroke="none" 
	d="M1349.007080,1212.723022 
	C1342.238281,1206.986816 1335.469482,1201.250732 1328.129150,1195.030151 
	C1328.129150,1203.199829 1328.129150,1211.445557 1328.129150,1220.120972 
	C1316.121948,1220.120972 1305.084717,1220.120972 1293.675171,1220.120972 
	C1293.675171,1214.482300 1293.673706,1209.197021 1293.675415,1203.911621 
	C1293.701294,1126.335693 1293.725708,1048.759888 1293.756836,971.183960 
	C1293.759399,964.612976 1293.780273,964.629395 1300.224243,964.643616 
	C1313.871826,964.673706 1327.519531,964.684814 1341.677979,965.005249 
	C1342.274292,965.514893 1342.359863,965.723022 1342.202393,966.221313 
	C1341.989258,967.005249 1342.019287,967.499023 1341.873535,968.356934 
	C1341.731079,974.708008 1341.796631,980.694946 1341.791626,986.681885 
	C1341.773682,1007.811462 1341.747925,1028.941040 1341.676392,1050.070435 
	C1341.668213,1052.508911 1341.404419,1054.873535 1345.000488,1051.896362 
	C1351.840820,1046.359497 1358.422241,1041.058228 1365.302490,1035.776855 
	C1366.197510,1035.271973 1366.793701,1034.747070 1367.677002,1034.226074 
	C1368.310303,1034.073608 1368.656372,1033.917114 1369.311279,1033.793945 
	C1370.273804,1033.331665 1370.927612,1032.836304 1371.946289,1032.380249 
	C1373.197998,1032.046509 1374.084839,1031.673340 1375.345215,1031.348755 
	C1386.849609,1027.756592 1398.344971,1027.341187 1409.723755,1028.962524 
	C1417.276001,1030.038574 1424.574463,1032.897339 1431.986450,1034.958252 
	C1439.416504,1040.677246 1447.358521,1045.852539 1454.149048,1052.250366 
	C1462.956177,1060.548462 1468.957397,1070.877808 1474.225830,1081.944458 
	C1481.305786,1096.816528 1483.488892,1112.199219 1483.451294,1128.271851 
	C1483.413086,1144.551270 1478.817383,1159.649292 1471.476807,1174.709229 
	C1469.248413,1178.466064 1467.438721,1181.692139 1465.355713,1185.082520 
	C1462.725952,1188.415894 1460.369629,1191.585083 1457.768799,1194.926514 
	C1457.275879,1195.407227 1457.027466,1195.715820 1456.475708,1196.104492 
	C1453.786987,1198.717041 1451.401611,1201.249390 1449.016113,1203.781860 
	C1448.689941,1203.997192 1448.363892,1204.212524 1447.571045,1204.761719 
	C1435.302368,1214.419189 1421.999268,1220.334473 1407.105957,1222.526733 
	C1391.807007,1224.778809 1376.810669,1222.994141 1362.016479,1218.868530 
	C1361.537842,1218.667236 1361.059204,1218.466064 1359.998047,1217.938477 
	C1356.727295,1216.386230 1354.039185,1215.160156 1351.087891,1213.729980 
	C1350.218750,1213.258301 1349.612915,1212.990723 1349.007080,1212.723022 
	M1408.794434,1076.754028 
	C1393.044189,1065.564087 1367.333618,1068.177734 1352.787354,1078.667480 
	C1338.083496,1089.270874 1331.219238,1104.541138 1329.169434,1121.953735 
	C1328.133179,1130.756958 1330.756592,1139.353516 1334.041138,1147.640503 
	C1341.533447,1166.543701 1354.774292,1178.586548 1375.334839,1180.447754 
	C1396.093506,1182.326782 1413.236450,1175.262939 1424.600952,1156.846802 
	C1433.934937,1141.720947 1435.996826,1125.298218 1431.869141,1108.354858 
	C1428.658569,1095.175415 1420.449829,1084.964111 1408.794434,1076.754028 
	z"/>
<path fill="#000000" opacity="1.000000" stroke="none" 
	d="M1431.492554,1216.500000 
	C1431.510010,1216.505615 1431.475098,1216.494385 1431.492554,1216.500000 
	z"/>
<path fill="#BD34DC" opacity="1.000000" stroke="none" 
	d="M1779.728027,1207.939209 
	C1778.360718,1209.677368 1776.993408,1211.415527 1775.213623,1213.594360 
	C1771.949951,1216.212891 1769.256348,1218.647339 1766.215332,1220.516968 
	C1759.042847,1224.926636 1750.939819,1223.535645 1742.797363,1223.581787 
	C1741.304199,1223.141235 1740.126709,1222.887329 1738.816162,1222.621704 
	C1738.682983,1222.609985 1738.622437,1222.870361 1738.445068,1222.526123 
	C1735.475220,1220.463013 1732.464233,1219.015747 1729.929321,1216.976929 
	C1720.332886,1209.258545 1717.087036,1198.938599 1718.340454,1186.627930 
	C1720.071045,1182.573853 1721.663330,1178.863770 1723.489014,1174.961548 
	C1723.965698,1174.218628 1724.208862,1173.667847 1724.750366,1172.989746 
	C1727.408447,1170.401978 1729.768188,1167.941284 1732.487915,1165.396606 
	C1739.861206,1160.344116 1747.889038,1160.009766 1756.301025,1160.389160 
	C1756.958252,1160.505127 1757.353760,1160.467773 1758.031494,1160.655273 
	C1764.998657,1162.732422 1770.838745,1165.901489 1775.247192,1171.445068 
	C1776.233887,1172.685791 1777.611206,1173.615845 1778.686768,1174.938232 
	C1778.942627,1175.782471 1779.320679,1176.377563 1779.718750,1177.342529 
	C1780.684814,1179.893555 1781.630615,1182.074829 1782.540649,1184.660400 
	C1782.525757,1190.293457 1782.546509,1195.522339 1782.348389,1200.982300 
	C1781.987793,1201.823120 1781.846191,1202.432983 1781.537964,1203.297119 
	C1781.468872,1204.111450 1781.566650,1204.671509 1781.297607,1205.292725 
	C1780.529907,1206.215820 1780.129028,1207.077515 1779.728027,1207.939209 
	z"/>

</svg>